<svg width="76" height="64" viewBox="0 0 76 64" fill="none" xmlns="http://www.w3.org/2000/svg">
<ellipse cx="38.2349" cy="28.1791" rx="27.8501" ry="28.1791" fill="#FF6381"/>
<path fill-rule="evenodd" clip-rule="evenodd" d="M34.9583 30.6443L38.2348 19.8367L41.7734 30.6443H34.9583ZM46.6226 29.3845H48.3591C48.6605 29.3675 48.9439 29.2343 49.1511 29.0123C49.3584 28.7903 49.4736 28.4964 49.4731 28.191C49.4732 28.0271 49.4408 27.8648 49.3778 27.7138C49.3149 27.5628 49.2226 27.4261 49.1066 27.3117C48.9905 27.1974 48.853 27.1077 48.7021 27.0481C48.5512 26.9884 48.39 26.96 48.2281 26.9644H45.6724L45.2137 25.7046H48.0642C48.3557 25.6563 48.6206 25.5048 48.8118 25.277C49.003 25.0493 49.108 24.7602 49.108 24.4614C49.108 24.1626 49.003 23.8735 48.8118 23.6458C48.6206 23.4181 48.3557 23.2665 48.0642 23.2182H44.3291L42.1993 17.1514C41.9011 16.2886 41.3809 15.5218 40.6922 14.9303C40.3597 14.6304 39.9704 14.4022 39.5479 14.2597C39.1253 14.1172 38.6786 14.0634 38.2348 14.1015C37.3881 14.0979 36.5662 14.3907 35.9085 14.9303C35.237 15.5373 34.72 16.2993 34.4013 17.1514L32.2061 23.2182H28.4053C28.2476 23.2182 28.0915 23.2501 27.9462 23.3121C27.801 23.3742 27.6694 23.4651 27.5595 23.5794C27.4495 23.6938 27.3633 23.8293 27.306 23.9779C27.2487 24.1266 27.2214 24.2854 27.2258 24.4449C27.2336 24.762 27.3594 25.0645 27.5781 25.2919C27.7968 25.5193 28.0922 25.6549 28.4053 25.6715H31.3542L30.8955 26.8981H28.4053C28.2287 26.8722 28.0485 26.8872 27.8784 26.9421C27.7083 26.9969 27.5527 27.09 27.4234 27.2145C27.294 27.339 27.1943 27.4916 27.1317 27.6607C27.0691 27.8299 27.0453 28.0112 27.062 28.191C27.0699 28.3582 27.1116 28.5221 27.1845 28.6724C27.2574 28.8227 27.3599 28.9563 27.4858 29.065C27.6116 29.1737 27.7581 29.2552 27.9163 29.3044C28.0744 29.3537 28.2409 29.3696 28.4053 29.3513H30.1419L27.062 37.4735C26.8896 37.9299 26.7901 38.4111 26.7671 38.8991C26.7941 39.5918 27.0881 40.2463 27.5862 40.7224C28.1045 41.202 28.7844 41.4629 29.4866 41.4518C30.0818 41.4708 30.6657 41.2842 31.1422 40.9227C31.6186 40.5611 31.9592 40.0462 32.1078 39.4627L33.2218 36.1475H43.4772L44.5912 39.6616C44.7543 40.2355 45.1064 40.7358 45.5891 41.0795C46.0718 41.4232 46.6561 41.5896 47.2451 41.5512C47.6825 41.5597 48.1136 41.4449 48.4902 41.2197C48.8246 40.9643 49.1224 40.663 49.3748 40.3246C49.6095 39.9243 49.7234 39.4634 49.7025 38.9985C49.6357 38.5252 49.5261 38.0591 49.3748 37.6061L46.5571 29.5171L46.6226 29.3845Z" fill="white"/>
<path fill-rule="evenodd" clip-rule="evenodd" d="M38.2348 4.97279C33.6986 4.97279 29.2643 6.33382 25.4926 8.88376C21.7209 11.4337 18.7812 15.058 17.0452 19.2984C15.3093 23.5388 14.8551 28.2049 15.7401 32.7064C16.6251 37.208 18.8094 41.343 22.017 44.5885C25.2246 47.8339 29.3113 50.0441 33.7603 50.9395C38.2093 51.835 42.8209 51.3754 47.0118 49.619C51.2027 47.8625 54.7847 44.8881 57.3049 41.0719C59.8251 37.2556 61.1702 32.7689 61.1702 28.1791C61.1702 22.0244 58.7538 16.1218 54.4526 11.7698C50.1513 7.41774 44.3176 4.97279 38.2348 4.97279ZM38.2348 53.043C33.3746 53.043 28.6235 51.5848 24.5824 48.8527C20.5413 46.1206 17.3916 42.2374 15.5317 37.6941C13.6718 33.1508 13.1851 28.1515 14.1333 23.3284C15.0815 18.5053 17.4219 14.075 20.8586 10.5977C24.2953 7.12039 28.6739 4.75233 33.4407 3.79295C38.2075 2.83357 43.1485 3.32596 47.6387 5.20785C52.129 7.08974 55.9668 10.2766 58.667 14.3655C61.3672 18.4543 62.8084 23.2615 62.8084 28.1791C62.8084 34.7734 60.2194 41.0977 55.611 45.7606C51.0025 50.4234 44.7521 53.043 38.2348 53.043Z" fill="white"/>
<ellipse cx="9.91276" cy="23.4029" rx="9.91276" ry="10.0299" fill="#FF6381"/>
<path fill-rule="evenodd" clip-rule="evenodd" d="M8.74657 24.2803L9.91278 20.4335L11.1723 24.2803H8.74657ZM12.8983 23.8319H13.5164C13.6236 23.8258 13.7245 23.7784 13.7983 23.6994C13.872 23.6204 13.913 23.5158 13.9129 23.4071C13.9129 23.3487 13.9014 23.291 13.8789 23.2372C13.8565 23.1835 13.8237 23.1348 13.7824 23.0941C13.7411 23.0534 13.6921 23.0215 13.6384 23.0003C13.5847 22.979 13.5273 22.9689 13.4697 22.9705H12.5601L12.3968 22.5221H13.4114C13.5151 22.5049 13.6094 22.451 13.6775 22.3699C13.7455 22.2889 13.7829 22.186 13.7829 22.0796C13.7829 21.9733 13.7455 21.8704 13.6775 21.7893C13.6094 21.7083 13.5151 21.6543 13.4114 21.6371H12.0819L11.3239 19.4777C11.2178 19.1706 11.0326 18.8977 10.7874 18.6872C10.6691 18.5804 10.5305 18.4992 10.3801 18.4485C10.2298 18.3978 10.0707 18.3786 9.91278 18.3922C9.61141 18.3909 9.31887 18.4951 9.08477 18.6872C8.84576 18.9032 8.66174 19.1744 8.54832 19.4777L7.76696 21.6371H6.41416C6.35803 21.6371 6.30247 21.6485 6.25075 21.6705C6.19904 21.6926 6.15223 21.725 6.11309 21.7657C6.07395 21.8064 6.04327 21.8546 6.02287 21.9075C6.00247 21.9604 5.99276 22.0169 5.99432 22.0737C5.99711 22.1866 6.04189 22.2943 6.11972 22.3752C6.19755 22.4561 6.3027 22.5044 6.41416 22.5103H7.46374L7.30048 22.9469H6.41416C6.35128 22.9377 6.28715 22.943 6.2266 22.9625C6.16606 22.9821 6.11068 23.0152 6.06465 23.0595C6.01861 23.1038 5.98311 23.1581 5.96083 23.2183C5.93855 23.2785 5.93006 23.3431 5.93601 23.4071C5.93884 23.4666 5.95369 23.5249 5.97963 23.5784C6.00557 23.6319 6.04206 23.6795 6.08686 23.7182C6.13165 23.7568 6.1838 23.7859 6.24009 23.8034C6.29638 23.8209 6.35562 23.8266 6.41416 23.8201H7.03225L5.93601 26.711C5.87467 26.8735 5.83924 27.0447 5.83105 27.2184C5.84067 27.465 5.94532 27.698 6.12261 27.8674C6.30708 28.0381 6.54906 28.131 6.79901 28.127C7.01088 28.1338 7.21871 28.0674 7.38829 27.9387C7.55787 27.81 7.67908 27.6267 7.73197 27.419L8.12848 26.239H11.7787L12.1752 27.4898C12.2333 27.6941 12.3586 27.8722 12.5304 27.9945C12.7022 28.1168 12.9102 28.1761 13.1198 28.1624C13.2755 28.1654 13.429 28.1246 13.563 28.0444C13.682 27.9535 13.788 27.8463 13.8779 27.7258C13.9614 27.5834 14.0019 27.4193 13.9945 27.2538C13.9707 27.0854 13.9317 26.9195 13.8779 26.7582L12.8749 23.8791L12.8983 23.8319Z" fill="white"/>
<path fill-rule="evenodd" clip-rule="evenodd" d="M9.91282 15.143C8.29824 15.143 6.71992 15.6274 5.37745 16.535C4.03497 17.4426 2.98864 18.7326 2.37077 20.2419C1.7529 21.7512 1.59124 23.412 1.90623 25.0143C2.22121 26.6165 2.99871 28.0883 4.14039 29.2435C5.28206 30.3986 6.73665 31.1853 8.32021 31.504C9.90376 31.8227 11.5452 31.6592 13.0368 31.034C14.5285 30.4088 15.8035 29.3501 16.7005 27.9918C17.5975 26.6335 18.0763 25.0365 18.0763 23.4029C18.0763 21.2122 17.2162 19.1113 15.6852 17.5622C14.1543 16.0132 12.0779 15.143 9.91282 15.143ZM9.91282 32.2527C8.18291 32.2527 6.49185 31.7337 5.05349 30.7612C3.61513 29.7888 2.49406 28.4066 1.83206 26.7895C1.17005 25.1724 0.996839 23.393 1.33433 21.6763C1.67181 19.9596 2.50484 18.3827 3.72807 17.145C4.9513 15.9074 6.50978 15.0645 8.20645 14.723C9.90311 14.3816 11.6618 14.5568 13.26 15.2266C14.8582 15.8965 16.2242 17.0308 17.1853 18.4861C18.1464 19.9415 18.6594 21.6525 18.6594 23.4029C18.6594 25.75 17.7379 28.001 16.0976 29.6607C14.4573 31.3203 12.2325 32.2527 9.91282 32.2527Z" fill="white"/>
<ellipse cx="50.5079" cy="50.1493" rx="13.689" ry="13.8507" fill="#FF6381"/>
<path fill-rule="evenodd" clip-rule="evenodd" d="M48.8975 51.3609L50.508 46.0487L52.2473 51.3609H48.8975ZM54.6308 50.7417H55.4844C55.6325 50.7334 55.7718 50.6679 55.8737 50.5588C55.9755 50.4497 56.0322 50.3052 56.0319 50.1551C56.032 50.0745 56.016 49.9948 55.9851 49.9205C55.9541 49.8463 55.9088 49.7791 55.8518 49.7229C55.7947 49.6667 55.7271 49.6226 55.6529 49.5933C55.5788 49.564 55.4996 49.55 55.42 49.5522H54.1638L53.9383 48.933H55.3394C55.4827 48.9092 55.6129 48.8347 55.7069 48.7228C55.8009 48.6109 55.8525 48.4688 55.8525 48.3219C55.8525 48.175 55.8009 48.0329 55.7069 47.921C55.6129 47.8091 55.4827 47.7346 55.3394 47.7108H53.5035L52.4567 44.7288C52.3101 44.3047 52.0544 43.9279 51.7159 43.6371C51.5525 43.4897 51.3611 43.3775 51.1534 43.3075C50.9457 43.2375 50.7261 43.211 50.508 43.2297C50.0918 43.228 49.6878 43.3719 49.3646 43.6371C49.0345 43.9355 48.7804 44.31 48.6237 44.7288L47.5447 47.7108H45.6766C45.5991 47.7108 45.5223 47.7265 45.4509 47.757C45.3795 47.7875 45.3149 47.8322 45.2608 47.8884C45.2068 47.9446 45.1644 48.0112 45.1362 48.0842C45.1081 48.1573 45.0947 48.2354 45.0968 48.3137C45.1006 48.4696 45.1625 48.6183 45.27 48.7301C45.3775 48.8419 45.5227 48.9085 45.6766 48.9167H47.126L46.9005 49.5196H45.6766C45.5897 49.5069 45.5012 49.5142 45.4176 49.5412C45.334 49.5681 45.2575 49.6139 45.1939 49.6751C45.1303 49.7363 45.0813 49.8113 45.0506 49.8944C45.0198 49.9776 45.0081 50.0667 45.0163 50.1551C45.0202 50.2373 45.0407 50.3178 45.0765 50.3917C45.1123 50.4656 45.1627 50.5312 45.2246 50.5847C45.2864 50.6381 45.3585 50.6781 45.4362 50.7023C45.5139 50.7265 45.5957 50.7344 45.6766 50.7254H46.5301L45.0163 54.7177C44.9316 54.942 44.8826 55.1785 44.8713 55.4184C44.8846 55.7589 45.0291 56.0806 45.274 56.3146C45.5287 56.5503 45.8629 56.6785 46.208 56.6731C46.5006 56.6824 46.7876 56.5907 47.0218 56.413C47.256 56.2353 47.4234 55.9822 47.4964 55.6954L48.044 54.0659H53.0848L53.6323 55.7931C53.7125 56.0753 53.8856 56.3212 54.1228 56.4901C54.3601 56.659 54.6473 56.7408 54.9368 56.722C55.1518 56.7261 55.3637 56.6697 55.5488 56.559C55.7132 56.4335 55.8595 56.2854 55.9836 56.119C56.099 55.9223 56.1549 55.6958 56.1447 55.4672C56.1119 55.2346 56.0579 55.0055 55.9836 54.7829L54.5986 50.8069L54.6308 50.7417Z" fill="white"/>
<path fill-rule="evenodd" clip-rule="evenodd" d="M50.508 38.7427C48.2784 38.7427 46.0988 39.4117 44.2449 40.6651C42.391 41.9184 40.9461 43.6999 40.0928 45.7842C39.2396 47.8684 39.0163 50.1619 39.4513 52.3745C39.8863 54.5872 40.96 56.6196 42.5366 58.2148C44.1132 59.8101 46.1219 60.8964 48.3087 61.3366C50.4955 61.7767 52.7622 61.5508 54.8221 60.6875C56.8821 59.8241 58.6427 58.3621 59.8815 56.4863C61.1202 54.6106 61.7814 52.4052 61.7814 50.1492C61.7814 47.124 60.5936 44.2228 58.4795 42.0836C56.3653 39.9445 53.4979 38.7427 50.508 38.7427ZM50.508 62.3705C48.1191 62.3705 45.7838 61.6537 43.7975 60.3108C41.8112 58.9679 40.2631 57.0592 39.3489 54.8261C38.4347 52.593 38.1955 50.1357 38.6615 47.765C39.1276 45.3943 40.278 43.2167 41.9672 41.5075C43.6564 39.7983 45.8086 38.6344 48.1516 38.1628C50.4946 37.6913 52.9232 37.9333 55.1303 38.8583C57.3374 39.7833 59.2238 41.3497 60.551 43.3595C61.8782 45.3692 62.5866 47.7321 62.5866 50.1492C62.5866 53.3905 61.314 56.499 59.0489 58.791C56.7837 61.0829 53.7115 62.3705 50.508 62.3705Z" fill="white"/>
<g opacity="0.45">
<path d="M17.8464 51.1609L14.6082 52.9376C14.4863 52.996 14.3868 53.0933 14.325 53.2146L12.5502 56.4529C12.4606 56.6156 12.3112 56.736 12.1344 56.7878C11.9576 56.8397 11.7678 56.8189 11.6061 56.7299C11.4888 56.6683 11.3932 56.5716 11.3323 56.4529L9.548 53.2146C9.48625 53.0933 9.38671 52.996 9.26478 52.9376L6.02661 51.1609C5.94608 51.117 5.875 51.0572 5.81752 50.9852C5.76004 50.9132 5.71731 50.8303 5.69182 50.7414C5.66634 50.6525 5.65861 50.5593 5.66908 50.4673C5.67956 50.3754 5.70803 50.2864 5.75283 50.2057C5.81318 50.0842 5.90868 49.9843 6.02661 49.9191L9.26478 48.152C9.38549 48.0874 9.48419 47.9875 9.548 47.8654L11.3229 44.6272C11.4124 44.4645 11.5618 44.3441 11.7386 44.2923C11.9154 44.2404 12.1052 44.2612 12.2669 44.3502C12.3842 44.4118 12.4798 44.5085 12.5407 44.6272L14.3156 47.8654C14.3794 47.9875 14.4781 48.0874 14.5988 48.152L17.837 49.9191C17.9978 50.0097 18.1167 50.1609 18.168 50.3398C18.2192 50.5186 18.1987 50.7107 18.1107 50.8743C18.0477 50.9938 17.9529 51.0931 17.837 51.1609H17.8464ZM57.0405 12.1805L52.7827 9.8498C52.6328 9.77346 52.5057 9.65805 52.4145 9.51547L50.0827 5.21697C49.9598 5.00192 49.759 4.84375 49.5229 4.77599C49.2867 4.70822 49.0337 4.7362 48.8176 4.85398C48.6675 4.93959 48.5435 5.06512 48.4589 5.21697L46.127 9.51547C46.0398 9.6686 45.9124 9.79425 45.7588 9.87846L41.501 12.1805C41.2926 12.3013 41.1374 12.498 41.0673 12.7305C40.9971 12.963 41.0172 13.2139 41.1234 13.4319C41.2118 13.5898 41.3428 13.7191 41.501 13.8044L45.7588 16.1352C45.9136 16.222 46.0412 16.3511 46.127 16.5077L48.4589 20.768C48.5833 20.9814 48.7847 21.1376 49.0208 21.2035C49.2568 21.2695 49.5089 21.24 49.7239 21.1214C49.8728 21.0385 49.9967 20.9163 50.0827 20.768L52.4145 16.5077C52.4967 16.3484 52.6252 16.2183 52.7827 16.1352L57.0405 13.8044C57.2473 13.6821 57.4005 13.4847 57.4688 13.2523C57.5372 13.02 57.5157 12.77 57.4087 12.5531C57.3229 12.3964 57.1953 12.2674 57.0405 12.1805ZM75.7458 37.3328L73.5367 36.1293C73.4557 36.0836 73.3874 36.0179 73.3384 35.9382L72.13 33.7221C72.1004 33.6655 72.0598 33.6156 72.0107 33.5752C71.9617 33.5348 71.9051 33.5048 71.8443 33.487C71.7835 33.4691 71.7198 33.4639 71.657 33.4714C71.5942 33.479 71.5335 33.4993 71.4786 33.5311C71.3942 33.5686 71.3269 33.6368 71.2898 33.7221L70.0719 35.9382C70.0294 36.0196 69.9636 36.0862 69.8831 36.1293L67.6645 37.3328C67.556 37.3952 67.4756 37.4978 67.4404 37.619C67.4052 37.7402 67.4178 37.8704 67.4757 37.9824C67.5209 38.0643 67.5858 38.1333 67.6645 38.1829L69.8831 39.396C69.9675 39.4336 70.0348 39.5017 70.0719 39.5871L71.2898 41.8032C71.3549 41.9146 71.4603 41.9958 71.5838 42.0297C71.7072 42.0636 71.8388 42.0475 71.9506 41.9847C72.0257 41.9419 72.0877 41.8791 72.13 41.8032L73.3384 39.5871C73.3818 39.503 73.4516 39.4359 73.5367 39.396L75.7458 38.2212C75.8013 38.192 75.8504 38.152 75.8905 38.1034C75.9305 38.0549 75.9607 37.9987 75.9791 37.9383C75.9976 37.8779 76.0039 37.8144 75.9979 37.7514C75.9919 37.6885 75.9736 37.6273 75.944 37.5716C75.9044 37.4729 75.8351 37.3893 75.7458 37.3328Z" fill="white"/>
</g>
</svg>
