<svg width="368" height="80" viewBox="0 0 368 80" fill="none" xmlns="http://www.w3.org/2000/svg">
<g clip-path="url(#clip0_6076_30056)">
<g filter="url(#filter0_d_6076_30056)">
<path d="M0 84H370V0H0V84Z" fill="url(#paint0_diamond_6076_30056)"/>
</g>
<path d="M625.767 -10.271L70.9598 35.7228L574.369 -201.82C575.991 -202.579 576.61 -204.563 575.711 -206.115L528.502 -287.879C527.604 -289.431 525.573 -289.886 524.103 -288.859L66.6766 28.3353L383.831 -429.035C384.881 -430.54 384.415 -432.618 382.827 -433.54L301.202 -480.665C299.615 -481.587 297.584 -480.946 296.79 -479.288L59.2773 24.0405L105.54 -534H4.47113L50.7343 24.0405L-186.767 -479.253C-187.56 -480.934 -189.615 -481.576 -191.213 -480.642L-272.781 -433.551C-274.38 -432.629 -274.858 -430.529 -273.796 -429L43.335 28.3236L-414.079 -288.859C-415.562 -289.886 -417.604 -289.431 -418.503 -287.867L-465.688 -206.138C-466.586 -204.575 -465.968 -202.579 -464.334 -201.809L39.0518 35.7228L-515.639 -10.2593C-517.448 -10.4111 -519 -8.98724 -519 -7.16663V87.155C-519 88.9756 -517.448 90.3995 -515.639 90.2477L39.0518 44.2656L-464.532 281.89C-466.061 282.614 -466.645 284.481 -465.804 285.94L-418.398 368.043C-417.557 369.501 -415.643 369.933 -414.254 368.976L43.3233 51.6765L-274.053 509.362C-274.975 510.692 -274.566 512.524 -273.166 513.33L-190.84 560.864C-189.439 561.669 -187.642 561.109 -186.954 559.65L50.7226 55.9595L4.73962 610.709C4.58789 612.483 5.98834 614 7.77399 614H102.238C104.012 614 105.412 612.483 105.272 610.709L59.2773 55.9595L296.837 559.382C297.595 560.992 299.568 561.599 301.097 560.712L382.909 513.47C384.45 512.583 384.893 510.564 383.889 509.105L66.6766 51.6647L524.114 368.859C525.585 369.875 527.604 369.42 528.491 367.879L575.711 286.092C576.598 284.551 575.979 282.567 574.369 281.809L70.9481 44.2656L625.755 90.2594C627.506 90.3995 629 89.0223 629 87.2717V-7.28333C629 -9.03394 627.494 -10.4227 625.755 -10.271H625.767Z" fill="url(#paint1_diamond_6076_30056)" fill-opacity="0.5"/>
<path d="M37.5 -19.6223C26.5435 -19.6223 16.2829 -16.6755 7.44238 -11.5629L37.5 40.5V-19.6223Z" fill="#FE6446"/>
<path d="M7.44233 -11.5629C-1.68218 -6.28699 -9.28001 1.31795 -14.563 10.4424L37.4999 40.5L7.44233 -11.5629Z" fill="#FE9150"/>
<path d="M89.5629 10.4424C84.287 1.31795 76.6821 -6.27989 67.5576 -11.5629L37.5 40.5L89.5629 10.4424Z" fill="#FE9150"/>
<path d="M67.5576 -11.5629C58.71 -16.6826 48.4494 -19.6223 37.5 -19.6223V40.5L67.5576 -11.5629Z" fill="#BD3EFF"/>
<path d="M97.6296 40.5C97.6296 29.5435 94.6828 19.2829 89.5702 10.4424L37.5073 40.5H97.6296Z" fill="#FE6446"/>
<path d="M-14.5627 10.4424C-19.6823 19.29 -22.6221 29.5506 -22.6221 40.5H37.5002L-14.5627 10.4424Z" fill="#BD3EFF"/>
<path d="M7.44238 92.5629C16.29 97.6826 26.5506 100.622 37.5 100.622V40.5L7.44238 92.5629Z" fill="#BD3EFF"/>
<path d="M67.5576 92.5629C76.6821 87.287 84.2799 79.6821 89.5629 70.5576L37.5 40.5L67.5576 92.5629Z" fill="#FE9150"/>
<path d="M37.5 40.5L89.5629 70.5576C94.6826 61.71 97.6223 51.4494 97.6223 40.5H37.5Z" fill="#BD3EFF"/>
<path d="M-14.563 70.5576C-9.28711 79.6821 -1.68218 87.2799 7.44233 92.5629L37.4999 40.5L-14.563 70.5576Z" fill="#FE9150"/>
<path d="M-22.6221 40.5C-22.6221 51.4565 -19.6752 61.7171 -14.5627 70.5576L37.5002 40.5H-22.6221Z" fill="#FE6446"/>
<path d="M37.5 100.629C48.4565 100.629 58.7171 97.6826 67.5576 92.57L37.5 40.5071V100.629Z" fill="#FE6446"/>
<g filter="url(#filter1_d_6076_30056)">
<path d="M37.4999 48.325C41.8215 48.325 45.3249 44.8216 45.3249 40.5C45.3249 36.1783 41.8215 32.6749 37.4999 32.6749C33.1782 32.6749 29.6748 36.1783 29.6748 40.5C29.6748 44.8216 33.1782 48.325 37.4999 48.325Z" fill="white"/>
</g>
<path d="M34.2335 41.3876L34.1341 41.2882C33.9849 41.1107 33.8997 40.8906 33.8784 40.6633L33.8216 37.4396C33.8074 37.1911 33.9778 37.1058 34.1838 37.2479L37.2513 39.4633L34.3826 41.5154L34.2335 41.3947V41.3876Z" fill="#FE6446"/>
<path d="M41.1212 40.6776C41.0999 40.9545 40.9721 41.2172 40.7591 41.4089L37.8478 43.7167C37.6419 43.8729 37.3507 43.8729 37.1448 43.7167L35.0288 42.0125L34.624 41.7001L37.4998 39.6408L38.9129 38.6325L40.894 37.2195C41.0644 37.1556 41.1709 37.2408 41.1709 37.4538L41.1141 40.6776H41.1212Z" fill="#FE6446"/>
<g filter="url(#filter2_d_6076_30056)">
<path d="M37.5 -27C0.220913 -27 -30 3.22091 -30 40.5C-30 77.7791 0.220913 108 37.5 108C74.7791 108 105 77.7791 105 40.5C105 3.22091 74.7791 -27 37.5 -27ZM67.5576 92.5629C58.71 97.6826 48.4494 100.622 37.5 100.622C26.5506 100.622 16.2829 97.6755 7.4424 92.5629C-1.6821 87.287 -9.27993 79.6821 -14.5629 70.5576C-19.6826 61.71 -22.6223 51.4494 -22.6223 40.5C-22.6223 29.5506 -19.6755 19.2829 -14.5629 10.4424C-9.28703 1.3179 -1.6821 -6.28703 7.4424 -11.5629C14.4083 -15.5962 22.2546 -18.266 30.6264 -19.2246L35.6041 -10.6043C36.4491 -9.14154 38.5651 -9.14154 39.4101 -10.6043L44.3877 -19.2246C52.7596 -18.266 60.6059 -15.5962 67.5718 -11.5629C76.6963 -6.28703 84.2941 1.3179 89.5771 10.4424C94.6968 19.29 97.6365 29.5506 97.6365 40.5C97.6365 51.4494 94.6897 61.7171 89.5771 70.5576C84.3012 79.6821 76.6963 87.2799 67.5718 92.5629H67.5576Z" fill="white"/>
</g>
</g>
<defs>
<filter id="filter0_d_6076_30056" x="-19" y="-19" width="408" height="122" filterUnits="userSpaceOnUse" color-interpolation-filters="sRGB">
<feFlood flood-opacity="0" result="BackgroundImageFix"/>
<feColorMatrix in="SourceAlpha" type="matrix" values="0 0 0 0 0 0 0 0 0 0 0 0 0 0 0 0 0 0 127 0" result="hardAlpha"/>
<feOffset/>
<feGaussianBlur stdDeviation="9.5"/>
<feColorMatrix type="matrix" values="0 0 0 0 0 0 0 0 0 0 0 0 0 0 0 0 0 0 0.2 0"/>
<feBlend mode="normal" in2="BackgroundImageFix" result="effect1_dropShadow_6076_30056"/>
<feBlend mode="normal" in="SourceGraphic" in2="effect1_dropShadow_6076_30056" result="shape"/>
</filter>
<filter id="filter1_d_6076_30056" x="19.6748" y="22.6749" width="35.6499" height="35.6501" filterUnits="userSpaceOnUse" color-interpolation-filters="sRGB">
<feFlood flood-opacity="0" result="BackgroundImageFix"/>
<feColorMatrix in="SourceAlpha" type="matrix" values="0 0 0 0 0 0 0 0 0 0 0 0 0 0 0 0 0 0 127 0" result="hardAlpha"/>
<feOffset/>
<feGaussianBlur stdDeviation="5"/>
<feComposite in2="hardAlpha" operator="out"/>
<feColorMatrix type="matrix" values="0 0 0 0 0 0 0 0 0 0 0 0 0 0 0 0 0 0 0.05 0"/>
<feBlend mode="normal" in2="BackgroundImageFix" result="effect1_dropShadow_6076_30056"/>
<feBlend mode="normal" in="SourceGraphic" in2="effect1_dropShadow_6076_30056" result="shape"/>
</filter>
<filter id="filter2_d_6076_30056" x="-50" y="-47" width="175" height="175" filterUnits="userSpaceOnUse" color-interpolation-filters="sRGB">
<feFlood flood-opacity="0" result="BackgroundImageFix"/>
<feColorMatrix in="SourceAlpha" type="matrix" values="0 0 0 0 0 0 0 0 0 0 0 0 0 0 0 0 0 0 127 0" result="hardAlpha"/>
<feOffset/>
<feGaussianBlur stdDeviation="10"/>
<feComposite in2="hardAlpha" operator="out"/>
<feColorMatrix type="matrix" values="0 0 0 0 0 0 0 0 0 0 0 0 0 0 0 0 0 0 0.1 0"/>
<feBlend mode="normal" in2="BackgroundImageFix" result="effect1_dropShadow_6076_30056"/>
<feBlend mode="normal" in="SourceGraphic" in2="effect1_dropShadow_6076_30056" result="shape"/>
</filter>
<radialGradient id="paint0_diamond_6076_30056" cx="0" cy="0" r="1" gradientUnits="userSpaceOnUse" gradientTransform="translate(14.5393 82.1141) rotate(-8.18685) scale(299.253 144.393)">
<stop offset="0.469966" stop-color="#EBEBEB"/>
<stop offset="1" stop-color="#EBEBEB"/>
</radialGradient>
<radialGradient id="paint1_diamond_6076_30056" cx="0" cy="0" r="1" gradientUnits="userSpaceOnUse" gradientTransform="translate(63.2287 56.1956) rotate(42.3717) scale(489.796 767.221)">
<stop stop-color="#EBEBEB"/>
<stop offset="0.244792" stop-color="#D2D2D2"/>
<stop offset="0.541667" stop-color="#B3B3B3"/>
<stop offset="0.927083" stop-color="white"/>
</radialGradient>
<clipPath id="clip0_6076_30056">
<rect width="368" height="80" fill="white"/>
</clipPath>
</defs>
</svg>
